<?xml version="1.0" encoding="UTF-8"?>
<svg id="_Слой_1" data-name=" Слой 1" xmlns="http://www.w3.org/2000/svg" viewBox="0 0 479 475.03">
  <path d="M32.2.51C20,2.61,9.5,10.71,3.8,22.31l-3.8,7.6v272.1l3.2,6.7c7.6,16.1,24.5,25.3,41.9,22.8,3.3-.4,6-.7,6-.6.1,0-2.8,23.2-6.3,51.5-6.5,51.3-6.5,51.4-4.5,54,1,1.4,3,3,4.4,3.5,2.7,1,4.9,0,47.3-20.4,22.4-10.8,25.7-12.2,26.5-11.3,30.1,35,58.4,66.2,60.5,66.7,2.8.7,8.4-1.7,8.7-3.7,0-.6.2-16.3.3-34.7.2-33.9.9-45.4,4.6-72.5,5.8-42.5,18.1-86.3,34.1-120.8l4.1-8.7h17.4l4.2,9c16.1,34.7,29.1,81.4,34.6,124.8,3.2,25.1,3.8,35.9,4,68.2.1,18.4.3,34.1.3,34.7.3,2,5.9,4.4,8.7,3.7,1.7-.4,12.1-11.4,30.8-32.7,15.5-17.6,28.7-32.7,29.3-33.6,1-1.3,6.2.9,36.4,15.4,38.2,18.3,37.9,18.2,42.2,12.4,2-2.6,2-2.7-4.5-54-3.5-28.3-6.4-51.5-6.3-51.5,0-.1,2.7.2,6,.6,17.5,2.5,34.3-6.6,41.9-22.8l3.2-6.7V29.91l-3.8-7.6c-8-16.3-24.1-24.5-42.5-21.8-46.7,7.1-91.8,32.4-121.9,68.6-7.9,9.5-18.9,25.1-23.5,33.4l-1.8,3.1-3.4-2.6c-6.6-5-10.4-5.5-42.6-5.5s-36,.5-42.5,5.4l-3.4,2.6-1.7-2.7c-.9-1.6-4.6-7.3-8.2-12.8C154.6,45.31,110.4,14.41,59.4,3.11,45.4.11,38.5-.59,32.2.51h0ZM50.7,17.51c49.3,10.1,90.9,38.5,120,82,3.4,5.2,8.2,13.3,10.6,18,4.1,8.1,4.3,8.8,4,16.2l-.3,7.8-25.5-16.5c-17.7-11.5-26.3-16.5-28.3-16.5-6.2,0-10,8.2-5.8,12.6,1,1.1,14.9,10.5,31,20.9l29.1,18.9v10.1l-29.2,18.9c-16.1,10.4-30.1,19.8-31,20.9-4.1,4.5-.2,12.7,5.9,12.7,1.9,0,11-5.3,28.3-16.5l25.5-16.5.3,7.7c.3,8.6-1,12-10.8,28.2-10.6,17.4-27.7,37.1-43.5,50.1-23,18.8-51.8,32.3-80.8,37.9-11.3,2.2-16.3,1.9-22.7-1.4-4-2.1-9.5-8.8-10.8-13.4-1.7-5.5-1.7-261.7,0-267.2,2.1-7.2,9.6-14.1,17.3-16,4.7-1.1,6.1-1,16.7,1.1h0ZM450.5,18.51c4.9,2.5,10.4,8.9,11.8,13.9,1.7,5.5,1.7,261.7,0,267.2-1.3,4.6-6.8,11.3-10.8,13.4-6.4,3.3-11.4,3.6-22.7,1.4-37.1-7.1-70-25.2-97.3-53.5-11.9-12.3-19.3-21.8-27.6-35.5-9.3-15.3-10.5-18.5-10.2-27.4l.3-7.6,25.5,16.5c17.4,11.3,26.4,16.6,28.3,16.6,5.5,0,9.4-6.9,6.8-11.9-.5-.9-14.5-10.5-31-21.2l-30.1-19.4v-10l29.1-18.9c16-10.4,30-19.8,31-21,4.2-4.4.4-12.6-5.8-12.6-2,0-10.7,5.1-28.3,16.5l-25.5,16.5-.3-7.5c-.3-8.7.6-11.2,9.1-25.8,24-40.7,60.3-70.3,103.7-84.8,23.3-7.7,35.7-9.1,44-4.9h0ZM271,114.91c6.5,2.8,6.5,2.6,6.5,51.1s.1,47.8-6.4,50.9c-5.1,2.4-58.1,2.4-63.2,0-6.5-3.1-6.4-2.6-6.4-50.9s0-48.3,6.3-51c4.7-2.1,58.3-2.1,63.2-.1h0ZM197.6,229.41c2.2,1.7,6.5,3.5,9.5,4.1s5.4,1.3,5.4,1.4-1.8,4.5-4.1,9.7c-22.4,51.4-34.4,110-36.7,178.8l-.7,20.4-21.4-24.4c-24.8-28.4-26.3-29.9-29.6-29.9-1.3,0-16,6.5-32.7,14.5-16.6,7.9-30.3,14.3-30.5,14.1s2.2-20.8,5.3-45.8l5.7-45.4,9.1-2.8c34.7-10.6,70.4-35.2,94.5-65.1,6.7-8.3,18-25,20.2-29.8.7-1.5,1.4-2.7,1.6-2.7s2.1,1.3,4.4,2.9h0ZM290.9,235.01c24.4,41.9,68.5,76.8,114,90,3.1.9,5.9,2.2,6.1,2.8.7,1.8,11.6,89.9,11.2,90.3-.1.2-13.9-6.2-30.5-14.2-16.6-7.9-31.3-14.4-32.7-14.4-3.3,0-4.8,1.5-29.6,29.9l-21.4,24.4-.7-20.9c-2.5-72.7-13.7-124.6-40.4-187.1-.4-.7,1.5-1.5,5-2.3,3-.6,7.2-2.4,9.3-4s4-2.9,4.3-2.9,2.7,3.8,5.4,8.4h0Z" style="fill: #fff;"/>
</svg>