<?xml version="1.0" standalone="no"?>
<!DOCTYPE svg PUBLIC "-//W3C//DTD SVG 20010904//EN"
 "http://www.w3.org/TR/2001/REC-SVG-20010904/DTD/svg10.dtd">
<svg version="1.0" xmlns="http://www.w3.org/2000/svg"
 width="512.000000pt" height="512.000000pt" viewBox="0 0 512.000000 512.000000"
 preserveAspectRatio="xMidYMid meet">

<g transform="translate(0.000000,512.000000) scale(0.100000,-0.100000)"
fill="#000000" stroke="none">
<path d="M487 4930 c-122 -21 -227 -102 -284 -218 l-38 -76 0 -1360 0 -1361
32 -67 c76 -161 245 -253 419 -228 33 4 60 7 60 6 1 0 -28 -232 -63 -515 -65
-513 -65 -514 -45 -540 10 -14 30 -30 44 -35 27 -10 49 0 473 204 224 108 257
122 265 113 301 -350 584 -662 605 -667 28 -7 84 17 87 37 0 6 2 163 3 347 2
339 9 454 46 725 58 425 181 863 341 1208 l41 87 87 0 87 0 42 -90 c161 -347
291 -814 346 -1248 32 -251 38 -359 40 -682 1 -184 3 -341 3 -347 3 -20 59
-44 87 -37 17 4 121 114 308 327 155 176 287 327 293 336 10 13 62 -9 364
-154 382 -183 379 -182 422 -124 20 26 20 27 -45 540 -35 283 -64 515 -63 515
0 1 27 -2 60 -6 175 -25 343 66 419 228 l32 67 0 1361 0 1360 -38 76 c-80 163
-241 245 -425 218 -467 -71 -918 -324 -1219 -686 -79 -95 -189 -251 -235 -334
l-18 -31 -34 26 c-66 50 -104 55 -426 55 -322 0 -360 -5 -425 -54 l-34 -26
-17 27 c-9 16 -46 73 -82 128 -291 447 -733 756 -1243 869 -140 30 -209 37
-272 26z m185 -170 c493 -101 909 -385 1200 -820 34 -52 82 -133 106 -180 41
-81 43 -88 40 -162 l-3 -78 -255 165 c-177 115 -263 165 -283 165 -62 0 -100
-82 -58 -126 10 -11 149 -105 310 -209 l291 -189 0 -51 0 -50 -292 -189 c-161
-104 -301 -198 -310 -209 -41 -45 -2 -127 59 -127 19 0 110 53 283 165 l255
165 3 -77 c3 -86 -10 -120 -108 -282 -106 -174 -277 -371 -435 -501 -230 -188
-518 -323 -808 -379 -113 -22 -163 -19 -227 14 -40 21 -95 88 -108 134 -17 55
-17 2617 0 2672 21 72 96 141 173 160 47 11 61 10 167 -11z m3998 -10 c49 -25
104 -89 118 -139 17 -55 17 -2617 0 -2672 -13 -46 -68 -113 -108 -134 -64 -33
-114 -36 -227 -14 -371 71 -700 252 -973 535 -119 123 -193 218 -276 355 -93
153 -105 185 -102 274 l3 76 255 -165 c174 -113 264 -166 283 -166 55 0 94 69
68 119 -5 9 -145 105 -310 212 l-301 194 0 50 0 50 291 189 c160 104 300 198
310 210 42 44 4 126 -58 126 -20 0 -107 -51 -283 -165 l-255 -165 -3 75 c-3
87 6 112 91 258 240 407 603 703 1037 848 233 77 357 91 440 49z m-1795 -964
c65 -28 65 -26 65 -511 0 -483 1 -478 -64 -509 -51 -24 -581 -24 -632 0 -65
31 -64 26 -64 509 0 482 0 483 63 510 47 21 583 21 632 1z m-734 -1145 c22
-17 65 -35 95 -41 30 -6 54 -13 54 -14 0 -1 -18 -45 -41 -97 -224 -514 -344
-1100 -367 -1788 l-7 -204 -214 244 c-248 284 -263 299 -296 299 -13 0 -160
-65 -327 -145 -166 -79 -303 -143 -305 -141 -2 2 22 208 53 458 l57 454 91 28
c347 106 704 352 945 651 67 83 180 250 202 298 7 15 14 27 16 27 2 0 21 -13
44 -29z m933 -56 c244 -419 685 -768 1140 -900 31 -9 59 -22 61 -28 7 -18 116
-899 112 -903 -1 -2 -139 62 -305 142 -166 79 -313 144 -327 144 -33 0 -48
-15 -296 -299 l-214 -244 -7 209 c-25 727 -137 1246 -404 1871 -4 7 15 15 50
23 30 6 72 24 93 40 21 16 40 29 43 29 3 0 27 -38 54 -84z"/>
</g>
</svg>
