<?xml version="1.0" standalone="no"?>
<!DOCTYPE svg PUBLIC "-//W3C//DTD SVG 20010904//EN"
 "http://www.w3.org/TR/2001/REC-SVG-20010904/DTD/svg10.dtd">
<svg version="1.0" xmlns="http://www.w3.org/2000/svg"
 width="512.000000pt" height="512.000000pt" viewBox="0 0 512.000000 512.000000"
 preserveAspectRatio="xMidYMid meet">

<g transform="translate(0.000000,512.000000) scale(0.100000,-0.100000)"
fill="#000000" stroke="none">
<path d="M2081 5024 c-208 -56 -348 -264 -312 -465 22 -128 39 -151 334 -446
l272 -273 -376 0 c-406 0 -437 -3 -541 -56 -71 -36 -159 -123 -197 -193 -58
-109 -61 -139 -61 -536 l0 -360 -64 -33 c-76 -39 -162 -126 -200 -200 -52
-104 -56 -137 -56 -527 l0 -360 -64 -33 c-76 -39 -162 -126 -200 -200 -52
-103 -56 -138 -56 -514 l0 -348 -215 0 c-282 0 -265 12 -265 -200 0 -147 1
-152 25 -175 l24 -25 2431 0 2431 0 24 25 c24 23 25 28 25 175 0 212 17 200
-265 200 l-215 0 0 348 c0 376 -4 411 -56 514 -38 74 -124 161 -200 200 l-64
33 0 360 c0 390 -4 423 -56 527 -38 74 -124 161 -200 200 l-64 33 0 351 c0
197 -4 375 -10 405 -25 131 -124 266 -239 328 -109 58 -137 61 -550 61 l-375
0 275 278 c244 246 278 284 303 340 88 202 -4 447 -202 539 -170 79 -340 45
-488 -99 l-74 -71 -72 70 c-83 80 -147 116 -233 132 -75 14 -107 13 -174 -5z
m185 -161 c38 -13 72 -39 155 -120 140 -136 139 -136 268 -9 121 118 162 140
256 140 110 0 185 -49 233 -152 30 -65 28 -143 -6 -212 -15 -31 -113 -136
-317 -340 l-295 -295 -289 289 c-330 329 -346 351 -346 461 1 78 16 118 69
173 71 76 170 100 272 65z m1254 -1193 c65 -18 143 -73 178 -124 18 -27 31
-54 29 -60 -2 -6 -33 -14 -69 -18 -36 -4 -112 -19 -169 -33 -71 -18 -145 -28
-234 -32 -142 -6 -212 2 -395 44 -103 24 -135 27 -300 27 -174 0 -193 -2 -325
-33 -229 -54 -415 -54 -629 0 -43 11 -107 23 -143 26 -38 4 -67 11 -70 19 -7
20 46 92 96 128 93 68 37 65 1066 65 576 1 943 -3 965 -9z m-1920 -393 c125
-29 149 -31 320 -31 176 0 192 1 325 34 132 32 150 34 315 34 165 0 183 -2
315 -34 133 -33 149 -34 325 -34 171 0 195 2 320 31 74 17 159 34 188 37 l52
7 0 -301 0 -300 -1200 0 -1200 0 0 300 0 301 53 -7 c28 -3 113 -20 187 -37z
m2308 -756 c35 -19 74 -48 88 -64 33 -40 74 -121 74 -148 0 -26 -13 -24 -145
15 -163 49 -301 46 -485 -12 -128 -40 -257 -38 -407 6 -187 55 -325 54 -505
-5 -69 -23 -101 -27 -193 -28 -99 0 -121 4 -220 35 -102 33 -119 35 -240 35
-121 0 -138 -2 -240 -35 -99 -31 -121 -35 -220 -35 -92 1 -124 5 -193 28 -45
15 -100 30 -122 33 -30 5 -37 10 -33 23 14 38 67 103 106 130 94 64 4 60 1402
58 l1270 -2 63 -34z m-1837 -354 c177 -60 333 -61 504 -6 89 29 113 32 215 32
97 0 128 -4 195 -26 194 -63 325 -63 520 0 118 39 266 39 391 0 50 -15 110
-31 135 -35 l44 -8 3 -262 2 -262 -1520 0 -1520 0 0 295 0 295 21 0 c12 0 65
-14 118 -32 89 -29 106 -32 231 -32 103 0 149 4 195 18 179 55 188 56 290 52
73 -3 121 -11 176 -29z m2157 -766 c35 -19 74 -48 88 -64 34 -41 74 -121 74
-150 0 -23 -2 -24 -49 -16 -27 4 -83 17 -123 28 -208 56 -358 55 -598 -7 -89
-22 -126 -26 -240 -26 -122 0 -147 3 -260 34 -120 33 -132 35 -290 34 -156 -1
-172 -2 -285 -34 -110 -31 -131 -34 -260 -34 -129 0 -150 3 -260 34 -114 32
-129 33 -285 34 -158 0 -170 -1 -290 -34 -116 -32 -135 -35 -265 -34 -125 0
-153 4 -259 32 -65 18 -131 32 -147 32 -20 0 -29 5 -29 16 0 26 58 102 103
133 94 65 -29 60 1722 58 l1590 -2 63 -34z m-3318 -364 c107 -29 127 -31 280
-31 157 1 171 2 285 34 112 32 130 34 265 34 120 0 158 -4 220 -23 198 -58
410 -66 570 -21 225 63 361 65 565 9 112 -30 130 -32 285 -33 158 0 170 1 290
34 114 31 137 34 260 34 118 0 152 -4 265 -32 72 -17 147 -34 168 -37 l37 -6
0 -259 0 -260 -1840 0 -1840 0 0 299 0 300 38 -6 c20 -3 89 -19 152 -36z
m3970 -757 l0 -40 -2320 0 -2320 0 0 40 0 40 2320 0 2320 0 0 -40z"/>
</g>
</svg>
