<?xml version="1.0" standalone="no"?>
<!DOCTYPE svg PUBLIC "-//W3C//DTD SVG 20010904//EN"
 "http://www.w3.org/TR/2001/REC-SVG-20010904/DTD/svg10.dtd">
<svg version="1.0" xmlns="http://www.w3.org/2000/svg"
 width="512.000000pt" height="512.000000pt" viewBox="0 0 512.000000 512.000000"
 preserveAspectRatio="xMidYMid meet">
<g transform="translate(0.000000,512.000000) scale(0.100000,-0.100000)"
fill="#000000" stroke="none">
<path d="M4105 4806 c-16 -7 -138 -80 -270 -161 -132 -81 -246 -150 -253 -153
-7 -2 -50 31 -95 76 -101 98 -144 115 -232 91 -33 -9 -91 -61 -345 -315 l-306
-304 -29 31 c-52 55 -133 74 -202 49 -33 -13 -2227 -2201 -2250 -2245 -22 -42
-19 -127 6 -167 11 -18 323 -335 693 -705 469 -468 684 -677 710 -688 49 -20
94 -19 143 4 28 13 380 360 1142 1122 954 956 1103 1109 1112 1144 16 58 14
76 -14 130 -13 27 -23 50 -22 51 1 0 236 144 522 319 286 174 531 327 543 339
38 34 52 71 52 133 l0 58 -346 565 c-190 311 -354 574 -363 584 -41 48 -136
68 -196 42z m107 -108 c18 -15 676 -1088 691 -1128 8 -22 7 -33 -4 -49 -8 -12
-257 -170 -553 -351 l-540 -331 -23 24 -24 23 78 75 c64 61 134 109 397 269
175 107 324 204 332 215 12 18 11 29 -6 79 -27 76 -15 123 47 184 32 32 44 51
41 66 -4 22 -327 556 -356 589 -17 20 -32 19 -107 -4 -62 -18 -109 -5 -165 47
-26 24 -56 44 -66 44 -11 0 -64 -27 -118 -60 -54 -33 -102 -60 -105 -60 -4 0
-23 17 -43 38 l-37 37 247 152 c143 88 258 152 273 152 14 1 32 -5 41 -11z
m-409 -595 c252 -252 465 -470 473 -485 7 -15 11 -35 8 -45 -4 -10 -140 -152
-303 -315 l-296 -298 -37 37 -38 37 185 186 c139 140 185 192 185 211 0 13
-14 44 -30 68 -41 61 -41 121 0 182 16 24 30 53 30 64 0 24 -487 515 -510 515
-9 0 -31 -11 -50 -25 -70 -52 -151 -51 -213 1 -16 13 -38 24 -50 24 -14 0 -84
-63 -209 -187 l-188 -187 -37 37 -38 37 300 300 c259 259 304 300 330 300 26
0 89 -59 488 -457z m175 192 c56 -39 133 -58 201 -50 l57 7 142 -232 142 -232
-20 -28 c-46 -65 -62 -118 -58 -198 l3 -75 -105 -64 -105 -65 66 69 c37 37 72
78 78 90 14 27 14 103 1 140 -6 15 -137 154 -291 309 l-281 281 59 36 c32 19
62 36 66 36 4 1 25 -10 45 -24z m-660 -205 c35 0 74 8 102 21 l44 20 195 -195
195 -195 -20 -43 c-26 -57 -26 -159 0 -216 l20 -43 -162 -162 -162 -162 -345
345 -345 345 161 161 161 161 49 -18 c28 -11 74 -19 107 -19z m-165 -749 c533
-532 677 -682 677 -701 0 -37 -2193 -2230 -2230 -2230 -36 0 -1390 1354 -1390
1390 0 19 232 257 1083 1108 595 596 1095 1093 1112 1103 17 11 39 16 50 13
11 -3 325 -310 698 -683z"/>
<path d="M2247 3250 c-102 -26 -205 -106 -250 -197 -43 -84 -47 -133 -47 -513
0 -317 2 -360 16 -375 15 -14 59 -16 413 -13 l396 3 60 28 c76 36 148 105 188
182 39 76 49 199 24 286 -34 117 -139 221 -261 258 -57 17 -61 21 -68 55 -22
104 -108 208 -214 258 -71 33 -186 46 -257 28z m203 -121 c89 -40 155 -126
166 -216 8 -65 28 -93 62 -93 95 0 209 -76 252 -167 67 -138 -1 -308 -149
-377 -43 -20 -65 -21 -383 -24 l-338 -3 0 334 c0 378 2 393 73 473 79 90 212
121 317 73z"/>
<path d="M1205 2420 c-11 -5 -121 -109 -244 -233 l-224 -225 -5 -50 c-3 -40 0
-58 16 -84 12 -18 214 -225 449 -460 463 -461 462 -460 543 -438 50 14 485
450 495 498 16 75 18 72 -443 535 -241 241 -449 445 -464 453 -30 15 -92 18
-123 4z m925 -964 c0 -12 -388 -404 -414 -418 -16 -9 -73 44 -447 418 -236
236 -429 436 -429 444 0 9 95 110 210 225 l211 209 434 -434 c239 -239 435
-439 435 -444z"/>
<path d="M1195 2116 c-11 -17 -13 -30 -6 -47 5 -13 159 -174 343 -356 261
-261 339 -333 359 -333 33 0 49 17 49 55 0 27 -41 71 -338 368 -361 360 -371
368 -407 313z"/>
<path d="M1162 1838 c-34 -34 -17 -58 206 -281 119 -119 224 -217 233 -217 27
0 52 26 52 54 0 23 -38 66 -214 242 -218 219 -243 236 -277 202z"/>
</g>
</svg>
