<?xml version="1.0" standalone="no"?>
<!DOCTYPE svg PUBLIC "-//W3C//DTD SVG 20010904//EN"
 "http://www.w3.org/TR/2001/REC-SVG-20010904/DTD/svg10.dtd">
<svg version="1.0" xmlns="http://www.w3.org/2000/svg"
 width="512.000000pt" height="512.000000pt" viewBox="0 0 512.000000 512.000000"
 preserveAspectRatio="xMidYMid meet">

<g transform="translate(0.000000,512.000000) scale(0.100000,-0.100000)"
fill="#000000" stroke="none">
<path d="M3745 5100 c-254 -70 -589 -177 -598 -191 -21 -34 2 -63 119 -149 63
-47 119 -90 124 -95 5 -6 16 -54 25 -106 16 -92 16 -98 -4 -176 -12 -45 -21
-88 -21 -96 0 -29 30 -47 78 -47 l47 0 49 -125 c40 -103 52 -126 72 -131 13
-3 28 -4 33 -2 5 1 94 82 198 178 291 271 360 360 384 493 22 124 -20 257
-112 348 -53 54 -105 83 -186 104 -74 19 -122 18 -208 -5z m241 -111 c107 -51
167 -147 168 -269 1 -63 -4 -84 -27 -130 -26 -53 -89 -131 -105 -129 -4 0 -56
58 -117 130 -125 147 -100 135 -308 144 l-138 7 -81 61 c-44 34 -76 63 -71 64
4 2 121 37 258 78 281 84 328 89 421 44z m-314 -359 l66 0 104 -120 c56 -66
104 -124 106 -128 4 -13 -270 -264 -278 -255 -4 4 -22 46 -40 93 -38 102 -53
120 -95 120 l-33 0 15 61 c14 54 14 70 1 151 l-15 90 51 -6 c28 -3 81 -6 118
-6z"/>
<path d="M1395 4993 c-120 -43 -228 -134 -277 -234 -14 -30 -60 -167 -102
-304 -64 -210 -74 -252 -63 -268 10 -16 419 -241 486 -268 32 -13 71 12 71 46
0 39 14 37 69 -10 29 -25 61 -45 71 -45 26 0 49 34 94 138 37 84 42 91 70 94
48 5 55 30 40 145 -7 54 -11 100 -8 102 2 3 41 -1 86 -8 76 -12 82 -11 101 7
19 20 19 21 -8 158 -17 89 -37 162 -57 202 -43 91 -127 173 -224 219 -74 36
-85 38 -189 41 -86 2 -121 -2 -160 -15z m279 -104 c135 -50 218 -160 247 -327
7 -39 10 -74 8 -76 -2 -2 -83 9 -179 26 -96 16 -184 27 -196 24 -28 -7 -33
-22 -85 -276 -23 -113 -45 -208 -48 -212 -9 -10 -356 179 -359 196 -6 29 129
450 160 498 95 150 282 210 452 147z m51 -475 c16 -4 20 -14 21 -50 1 -24 4
-62 8 -84 5 -30 3 -40 -7 -40 -22 0 -42 -29 -78 -112 -19 -43 -37 -78 -41 -78
-5 0 -25 16 -46 35 l-39 34 28 133 c16 73 31 144 34 157 6 21 9 23 53 16 26
-3 56 -9 67 -11z"/>
<path d="M4106 4259 c-66 -16 -155 -70 -206 -126 -113 -124 -144 -286 -86
-451 8 -21 22 -84 32 -140 l17 -102 49 0 c40 0 48 3 48 19 0 34 -31 184 -52
256 -13 41 -21 97 -21 136 0 119 72 233 181 286 49 24 69 28 142 28 77 -1 91
-4 148 -35 75 -40 101 -69 174 -198 139 -245 227 -506 263 -785 10 -80 15
-204 15 -388 0 -250 -1 -269 -17 -269 -27 1 -1003 157 -1008 161 -6 7 88 209
97 209 5 0 61 -27 124 -60 128 -67 168 -74 234 -40 42 22 84 71 93 110 3 14
35 237 71 496 64 455 65 472 51 521 -54 181 -315 185 -375 6 -5 -15 -27 -162
-49 -327 -22 -164 -42 -300 -44 -303 -3 -2 -107 48 -233 112 -225 116 -227
117 -285 113 -157 -11 -241 -184 -153 -311 26 -37 53 -54 247 -152 119 -60
217 -114 217 -119 0 -4 -26 -67 -57 -138 l-58 -129 -273 -327 c-151 -180 -285
-348 -298 -375 -14 -26 -32 -75 -40 -110 -30 -116 -22 -155 147 -647 l153
-445 -34 -166 c-35 -177 -35 -223 -2 -269 46 -62 123 -88 154 -53 9 10 79 128
158 262 118 203 141 249 138 275 -3 17 -60 199 -126 404 -67 205 -122 382
-122 393 0 45 37 97 230 320 112 129 205 236 207 238 1 2 5 2 7 0 2 -2 -5
-204 -16 -448 -19 -413 -19 -449 -4 -510 12 -49 70 -162 236 -459 l220 -395
-37 -44 c-79 -93 -78 -91 -78 -158 0 -66 23 -116 58 -123 8 -2 134 38 279 88
240 84 298 111 298 139 0 4 -118 216 -261 471 -209 371 -262 474 -266 511 -5
42 12 82 257 623 l262 577 -4 357 c-5 398 -15 487 -84 727 -70 240 -218 546
-314 645 -104 107 -260 153 -404 119z m199 -343 c41 -18 55 -42 55 -98 -1 -24
-29 -245 -64 -492 -58 -417 -64 -450 -85 -467 -13 -11 -32 -19 -42 -19 -15 0
-572 271 -588 286 -3 3 15 45 39 93 l43 89 180 -90 c184 -91 219 -101 231 -60
3 9 26 172 51 361 25 188 50 352 56 363 9 17 60 46 82 48 4 0 23 -6 42 -14z
m-770 -543 c19 -9 35 -20 35 -25 0 -20 -81 -168 -93 -168 -20 0 -70 37 -83 62
-26 47 -9 108 37 134 33 18 62 17 104 -3z m1252 -986 c1 -2 -109 -248 -245
-548 l-247 -544 0 -75 0 -75 233 -416 c127 -229 232 -418 232 -421 0 -5 -259
48 -265 53 -23 25 -447 807 -456 843 -10 39 -8 147 11 577 25 573 26 563 -29
557 -25 -3 -102 -88 -473 -518 -109 -126 -136 -184 -125 -264 3 -23 56 -195
117 -383 60 -187 110 -345 110 -351 0 -13 -199 -37 -209 -26 -4 5 -73 198
-152 429 -141 411 -144 422 -144 505 0 71 4 94 26 140 17 35 124 171 292 371
l265 316 528 -84 c290 -46 529 -85 531 -86z m-1169 -1686 c-11 -29 -204 -351
-210 -351 -20 0 -16 57 12 190 17 79 32 145 33 146 2 2 124 20 155 23 8 0 12
-3 10 -8z m939 -456 c37 -9 79 -18 93 -21 19 -5 -7 -17 -118 -56 -79 -27 -146
-47 -149 -45 -8 9 18 51 60 95 23 23 42 42 43 42 2 0 33 -7 71 -15z"/>
<path d="M2410 4138 c-5 -13 -11 -35 -14 -49 -9 -43 -39 -70 -91 -84 -39 -9
-52 -18 -59 -38 -12 -34 15 -67 55 -67 40 0 87 -44 95 -88 4 -20 13 -45 22
-54 32 -38 74 -11 86 54 8 44 55 88 95 88 40 0 67 33 55 67 -7 20 -20 29 -59
38 -52 14 -82 41 -91 84 -12 57 -22 71 -54 71 -22 0 -33 -6 -40 -22z m56 -179
c10 -17 -13 -36 -27 -22 -12 12 -4 33 11 33 5 0 12 -5 16 -11z"/>
<path d="M1090 3935 c-116 -33 -204 -109 -257 -222 -32 -70 -41 -79 -307 -317
-150 -135 -283 -257 -295 -272 -32 -41 -29 -115 7 -153 15 -17 158 -103 317
-192 160 -88 291 -162 292 -163 2 -2 9 -104 17 -227 l14 -224 196 -448 c142
-324 196 -458 196 -486 0 -22 -46 -169 -116 -367 -314 -895 -288 -812 -270
-839 l16 -25 365 0 365 0 16 25 c13 20 15 37 10 77 -12 89 -50 142 -144 204
-50 32 -75 73 -74 123 1 20 35 135 77 256 184 528 185 531 185 614 0 43 -11
178 -25 301 -13 123 -24 225 -22 226 7 6 354 -399 365 -426 13 -32 0 -213 -58
-809 -5 -52 -6 -100 -2 -107 13 -22 416 -386 439 -397 47 -21 112 75 100 149
-3 19 -36 80 -72 136 l-67 102 7 90 c3 50 20 262 36 471 17 209 29 421 27 470
-5 116 -19 147 -197 424 -76 119 -159 249 -185 289 l-46 73 -31 -18 c-17 -10
-35 -23 -40 -30 -7 -8 48 -102 177 -304 103 -162 196 -315 206 -341 13 -34 18
-74 17 -136 0 -109 -52 -759 -61 -768 -7 -6 -150 38 -176 54 -10 7 -7 68 14
316 27 295 27 308 11 360 -15 47 -47 88 -223 288 -258 292 -283 318 -309 318
-54 0 -55 -13 -15 -380 45 -412 51 -358 -90 -761 -66 -188 -121 -344 -123
-346 -5 -4 -189 16 -195 22 -2 2 44 142 103 310 100 286 107 311 103 368 -3
54 -28 116 -187 480 -102 233 -180 422 -175 426 5 5 187 64 404 131 217 68
410 128 429 133 44 14 51 37 51 163 l0 105 31 -23 c61 -45 80 -38 377 140 149
90 285 177 301 194 39 40 54 87 49 154 -8 94 -71 160 -170 178 -53 10 -97 -9
-280 -120 l-162 -98 -103 110 c-91 96 -110 123 -163 229 -68 137 -133 227
-234 326 -76 76 -148 127 -214 152 -62 25 -166 30 -232 12z m224 -118 c64 -29
194 -150 266 -246 109 -145 182 -339 200 -529 10 -109 14 -542 5 -542 -3 0
-186 -56 -407 -125 -221 -69 -403 -124 -404 -122 -1 1 -6 69 -11 150 -8 146
-8 148 12 141 11 -4 47 -9 80 -11 79 -6 138 24 178 89 47 76 33 194 -29 249
-11 9 -106 65 -212 125 -183 101 -192 108 -175 124 10 9 95 85 190 169 194
172 209 195 201 296 -4 42 -12 64 -35 93 -39 49 -98 82 -147 82 -38 0 -39 1
-22 19 20 22 75 50 121 62 49 13 131 2 189 -24z m-233 -186 c34 -35 39 -93 11
-127 -9 -12 -107 -101 -217 -199 -110 -97 -204 -184 -209 -192 -17 -30 12 -59
115 -116 57 -31 110 -61 118 -66 12 -8 3 -23 -44 -78 -32 -37 -62 -72 -66 -76
-4 -5 -113 51 -243 124 -168 94 -236 137 -236 150 0 9 37 50 83 91 332 299
555 496 572 506 37 21 84 14 116 -17z m1444 -437 c25 -27 33 -81 19 -118 -6
-16 -72 -61 -79 -54 -2 2 -24 39 -49 83 l-46 80 21 18 c13 10 38 17 66 17 35
0 49 -6 68 -26z m-488 -200 c9 4 64 36 123 71 60 36 112 65 117 65 9 0 15 -8
66 -101 l37 -66 -195 -119 -196 -118 -48 48 -48 47 -7 132 c-4 73 -10 143 -13
157 -5 20 10 10 71 -49 53 -51 81 -71 93 -67z m-962 -160 c32 -20 65 -43 72
-52 22 -29 16 -87 -13 -121 -38 -45 -83 -42 -179 11 -41 23 -75 45 -75 49 0
10 120 149 128 149 4 0 34 -16 67 -36z m1185 -2331 c5 -75 8 -85 51 -149 25
-38 54 -82 64 -99 l19 -30 -30 26 c-16 14 -87 79 -159 144 -71 65 -134 121
-138 125 -5 4 -5 34 -2 67 l7 60 92 -32 91 -33 5 -79z m-939 -59 c4 -2 9 -22
13 -45 13 -80 53 -134 148 -199 35 -23 68 -67 68 -89 0 -8 -82 -11 -275 -11
-151 0 -275 2 -275 4 0 3 27 83 60 178 33 95 60 174 60 176 0 5 192 -8 201
-14z"/>
<path d="M3220 2718 c-5 -13 -11 -36 -15 -51 -8 -40 -48 -73 -95 -81 -78 -12
-78 -90 0 -102 47 -8 87 -41 95 -81 13 -59 23 -73 54 -73 34 0 46 13 55 60 8
45 41 78 90 91 52 14 66 26 66 54 0 28 -14 40 -66 54 -49 13 -82 46 -90 91 -9
47 -21 60 -55 60 -21 0 -32 -6 -39 -22z m55 -177 c7 -12 -12 -24 -25 -16 -11
7 -4 25 10 25 5 0 11 -4 15 -9z"/>
<path d="M857 1742 c-10 -10 -17 -30 -17 -43 0 -46 -58 -99 -108 -99 -20 0
-52 -29 -52 -48 0 -21 39 -52 66 -52 35 0 94 -59 94 -94 0 -14 9 -35 20 -46
38 -38 64 -23 85 46 18 61 37 80 94 93 47 10 61 23 61 57 0 27 -16 40 -61 48
-47 8 -87 48 -95 95 -4 20 -11 42 -17 49 -14 18 -51 15 -70 -6z m48 -182 c11
-17 -5 -32 -21 -19 -7 6 -11 15 -8 20 7 12 21 11 29 -1z"/>
</g>
</svg>
