<?xml version="1.0" encoding="UTF-8"?>
<svg id="body" xmlns="http://www.w3.org/2000/svg" viewBox="0 0 282.01 310.86">
  <g>
    <path d="M276,124.86v168c0,3.47-1.47,6.59-3.83,8.79h-.01l-103.42-86.79,107.26-90h0Z" style="fill: #fff;"/>
    <path d="M272.16,301.64h.01c-2.14,2-5.01,3.22-8.18,3.22H18c-3.15,0-6.02-1.22-8.17-3.21h.01l103.42-86.79h55.48l103.42,86.78h0Z" style="fill: #fff;"/>
    <path d="M9.84,301.64h-.01c-2.36-2.18-3.83-5.31-3.83-8.78V124.86l107.26,90L9.84,301.64Z" style="fill: #fff;"/>
  </g>
  <g>
    <path d="M276,124.86v168c0,3.47-1.47,6.59-3.83,8.79-2.14,1.99-5.01,3.21-8.18,3.21H18c-3.15,0-6.02-1.22-8.17-3.21-2.36-2.19-3.83-5.32-3.83-8.79V124.86" style="fill: none; stroke: #8b1812; stroke-miterlimit: 10; stroke-width: 12px;"/>
    <line x1="9.84" y1="301.64" x2="113.26" y2="214.86" style="fill: none; stroke: #8b1812; stroke-miterlimit: 10; stroke-width: 12px;"/>
    <line x1="6" y1="124.86" x2="113.26" y2="214.86" style="fill: none; stroke: #8b1812; stroke-miterlimit: 10; stroke-width: 12px;"/>
    <line x1="168.74" y1="214.86" x2="141" y2="214.86" style="fill: none; stroke: #8b1812; stroke-miterlimit: 10; stroke-width: 12px;"/>
    <line x1="272.16" y1="301.64" x2="168.74" y2="214.86" style="fill: none; stroke: #8b1812; stroke-miterlimit: 10; stroke-width: 12px;"/>
    <line x1="276" y1="124.86" x2="168.74" y2="214.86" style="fill: none; stroke: #8b1812; stroke-miterlimit: 10; stroke-width: 12px;"/>
    <line x1="141" y1="214.86" x2="113.26" y2="214.86" style="fill: none; stroke: #8b1812; stroke-miterlimit: 10; stroke-width: 12px;"/>
  </g>
</svg>