<?xml version="1.0" standalone="no"?>
<!DOCTYPE svg PUBLIC "-//W3C//DTD SVG 20010904//EN"
 "http://www.w3.org/TR/2001/REC-SVG-20010904/DTD/svg10.dtd">
<svg version="1.0" xmlns="http://www.w3.org/2000/svg"
 width="512.000000pt" height="512.000000pt" viewBox="0 0 512.000000 512.000000"
 preserveAspectRatio="xMidYMid meet">
<g transform="translate(0.000000,512.000000) scale(0.100000,-0.100000)"
fill="#000000" stroke="none">
<path d="M2445 4815 c-19 -20 -35 -40 -35 -45 0 -6 -18 3 -41 19 -22 17 -60
33 -85 37 -84 12 -133 -27 -178 -143 -34 -87 -61 -119 -171 -201 -141 -106
-203 -217 -213 -381 l-5 -84 -87 -116 c-299 -397 -400 -709 -400 -1246 0 -389
-26 -609 -90 -788 l-30 -82 -408 -174 c-224 -96 -413 -179 -420 -184 -22 -17
-15 -120 14 -192 108 -270 611 -780 914 -928 75 -36 197 -50 216 -25 6 7 89
196 185 420 l173 407 68 25 c187 70 307 85 758 96 425 10 519 22 720 89 199
67 367 158 573 313 l118 88 62 0 c108 0 219 40 308 112 23 18 68 69 100 114
69 96 104 125 200 164 39 16 80 37 91 47 58 52 62 135 9 209 -17 24 -26 44
-21 44 5 0 25 16 45 35 31 31 35 42 35 86 0 27 -6 65 -14 84 -32 75 -158 166
-292 209 -48 16 -51 19 -67 70 -10 30 -30 80 -47 112 -21 42 -26 62 -19 75 15
29 10 121 -10 165 -11 23 -35 60 -55 81 l-36 40 39 18 c170 76 138 281 -64
421 -30 20 -55 38 -55 39 0 2 6 20 14 41 67 191 -21 359 -200 380 -44 6 -127
-8 -184 -30 -10 -4 -24 8 -43 39 -59 92 -183 175 -264 175 -63 0 -140 -62
-166 -134 -6 -16 -12 -14 -53 24 -25 23 -64 50 -87 61 -45 20 -136 25 -166 10
-13 -7 -33 -2 -75 19 -32 17 -82 37 -112 47 -51 16 -54 19 -70 67 -43 134
-134 260 -209 292 -19 8 -57 14 -84 14 -44 0 -55 -4 -86 -35z m165 -115 c79
-79 139 -245 143 -392 1 -42 -1 -78 -3 -81 -3 -2 -42 -1 -87 1 l-83 4 0 72 c0
84 -18 166 -61 277 -31 81 -31 81 -14 120 24 52 52 52 105 -1z m-322 6 c135
-71 223 -390 162 -587 -67 -217 -305 -415 -443 -370 -49 17 -121 98 -148 169
-33 86 -36 192 -9 271 31 92 72 143 177 222 100 74 142 127 179 221 22 56 40
88 51 88 2 0 16 -6 31 -14z m628 -357 c76 -32 76 -32 47 -102 -14 -34 -28 -65
-32 -69 -4 -4 -21 -3 -38 4 l-32 12 2 88 c1 48 3 88 4 88 1 0 23 -9 49 -21z
m715 -44 c20 -13 53 -43 72 -67 36 -43 111 -190 122 -238 l6 -25 -146 0 -147
0 -22 65 c-13 36 -31 80 -40 97 -9 18 -16 40 -16 50 0 26 56 140 72 146 21 9
60 -2 99 -28z m-425 -11 c83 -40 178 -191 227 -364 31 -105 49 -248 41 -317
-6 -50 -8 -51 -43 -58 -117 -22 -295 -127 -412 -244 -121 -121 -181 -224 -225
-389 -6 -20 -74 20 -121 71 -86 93 -144 248 -146 386 -1 191 81 349 243 466
169 121 235 199 289 340 51 131 70 145 147 109z m861 -145 c77 -29 104 -98 78
-196 -11 -39 -22 -62 -29 -59 -6 3 -44 15 -83 28 l-73 23 -30 89 c-16 49 -28
91 -26 94 10 9 83 31 108 32 15 0 39 -5 55 -11z m-1292 -49 c43 -11 81 -22 83
-25 9 -9 -40 -55 -108 -103 -189 -134 -271 -245 -316 -428 -9 -38 -18 -70 -18
-71 -6 -9 -146 31 -186 53 -46 25 -120 89 -120 104 0 3 24 14 54 23 104 33
243 148 314 261 26 41 69 135 86 189 8 24 110 23 211 -3z m-917 -382 c25 -27
65 -55 89 -64 33 -13 45 -24 53 -50 35 -106 236 -234 367 -234 18 0 33 -4 33
-10 0 -5 -9 -10 -20 -10 -32 0 -148 -47 -212 -86 -160 -97 -252 -252 -205
-344 20 -39 70 -67 136 -74 78 -9 116 -25 177 -76 103 -87 237 -131 340 -113
l49 9 -3 -90 c-5 -130 13 -176 135 -336 30 -39 42 -77 59 -184 3 -26 17 -51
39 -73 28 -28 40 -33 82 -33 71 0 140 38 213 118 66 71 146 216 156 283 8 50
24 61 24 16 0 -47 26 -132 63 -200 35 -67 123 -152 167 -162 25 -6 36 -17 54
-58 29 -63 92 -126 167 -165 l57 -30 -82 -60 c-268 -197 -541 -308 -848 -341
-54 -6 -182 -11 -285 -11 -238 0 -492 -15 -608 -35 -49 -9 -139 -32 -198 -52
l-109 -36 -265 266 -266 265 36 109 c64 191 87 404 87 798 0 283 20 434 82
625 56 174 157 365 278 528 l52 70 30 -57 c16 -31 50 -77 76 -103z m2077 117
c117 -30 262 -98 323 -150 50 -44 95 -116 90 -147 -4 -26 -55 -63 -109 -80
-35 -10 -45 -8 -106 20 -149 67 -300 103 -449 105 l-100 2 0 70 c1 39 -2 100
-7 137 l-7 67 27 5 c67 11 240 -3 338 -29z m-177 -365 c238 -30 474 -146 532
-261 41 -80 28 -98 -105 -150 -140 -54 -218 -120 -339 -288 -176 -244 -465
-313 -736 -176 -181 91 -242 214 -188 371 70 202 279 397 500 468 132 43 213
51 336 36z m-1265 -408 c55 -110 142 -208 208 -236 l31 -13 -54 -23 c-111 -48
-224 -24 -337 73 -61 53 -128 81 -214 92 -36 4 -60 12 -64 21 -9 23 44 100 99
144 62 49 172 107 226 118 l37 8 21 -65 c11 -36 32 -90 47 -119z m1853 -139
c13 -29 24 -55 24 -56 0 -2 -40 -3 -89 -4 -89 -1 -89 -1 -97 25 -4 15 -8 31
-8 36 -1 12 126 65 138 58 4 -2 19 -29 32 -59z m-250 -130 c11 -40 19 -101 19
-147 l0 -79 -40 -12 c-175 -51 -372 -235 -422 -391 -9 -30 -20 -54 -23 -54
-15 0 -79 74 -104 120 -22 40 -62 180 -53 186 1 0 33 9 71 18 178 44 303 134
416 301 39 57 99 125 110 125 4 0 16 -30 26 -67z m370 -63 c94 -24 185 -71
234 -120 53 -53 53 -81 1 -105 -39 -17 -40 -17 -106 9 -103 42 -211 66 -292
66 l-73 0 0 63 c0 34 -3 72 -6 84 -5 18 -1 22 23 26 43 7 140 -3 219 -23z
m-1627 -48 c44 -86 207 -197 346 -237 33 -10 61 -18 62 -20 8 -6 -33 -119 -63
-171 -60 -109 -166 -207 -206 -191 -10 3 -17 26 -21 68 -9 76 -40 148 -96 214
-72 86 -86 119 -86 215 0 59 5 96 17 123 9 20 19 37 22 37 3 0 14 -17 25 -38z
m1594 -233 c132 -31 238 -95 274 -162 19 -37 8 -50 -65 -77 -98 -36 -155 -82
-231 -183 -73 -97 -111 -130 -196 -169 -71 -32 -215 -32 -297 0 -74 30 -154
101 -169 152 -40 131 136 354 340 431 108 40 202 43 344 8z m-3234 -843 l63
-64 -228 -137 c-126 -75 -232 -142 -236 -149 -19 -29 11 -86 45 -86 8 0 117
61 243 136 126 74 236 140 245 144 12 7 30 -5 73 -49 l56 -57 -145 -244 c-80
-134 -145 -249 -145 -257 0 -34 57 -64 86 -45 7 4 74 110 149 236 l138 228 64
-64 65 -65 -157 -369 c-86 -203 -161 -373 -166 -379 -22 -22 -173 60 -319 174
-179 138 -439 412 -547 574 -58 87 -105 182 -101 203 2 12 120 67 373 175 204
87 372 158 375 159 3 0 34 -29 69 -64z"/>
<path d="M1772 2808 c-77 -112 -150 -304 -172 -450 -17 -117 -18 -281 -1 -301
17 -21 64 -22 81 -2 7 9 14 57 16 122 7 200 52 366 140 519 25 43 46 89 46
101 1 33 -20 53 -53 53 -22 0 -34 -9 -57 -42z"/>
<path d="M1968 2052 c-260 -259 -298 -301 -298 -328 0 -16 5 -35 12 -42 7 -7
26 -12 42 -12 27 0 69 38 328 298 240 240 298 303 298 324 0 29 -32 58 -64 58
-13 0 -128 -108 -318 -298z"/>
<path d="M2749 1864 c-213 -119 -346 -158 -573 -169 -60 -3 -115 -10 -123 -16
-17 -14 -17 -63 0 -77 20 -16 85 -20 202 -11 207 15 406 80 553 181 33 23 42
35 42 57 0 53 -43 68 -101 35z"/>
</g>
</svg>
