<?xml version="1.0" standalone="no"?>
<!DOCTYPE svg PUBLIC "-//W3C//DTD SVG 20010904//EN"
 "http://www.w3.org/TR/2001/REC-SVG-20010904/DTD/svg10.dtd">
<svg version="1.0" xmlns="http://www.w3.org/2000/svg"
 width="512.000000pt" height="512.000000pt" viewBox="0 0 512.000000 512.000000"
 preserveAspectRatio="xMidYMid meet">
<g transform="translate(0.000000,512.000000) scale(0.100000,-0.100000)"
fill="#000000" stroke="none">
<path d="M3700 4693 c-292 -44 -593 -240 -854 -558 -154 -187 -280 -378 -456
-693 -41 -73 -79 -131 -85 -129 -5 2 -10 8 -10 13 0 5 4 72 8 149 8 161 -2
269 -38 410 -38 146 -81 229 -160 313 -170 180 -407 217 -639 100 -352 -177
-566 -531 -662 -1093 -22 -126 -25 -487 -6 -620 78 -541 305 -1125 737 -1890
119 -212 146 -251 182 -268 38 -17 77 11 211 147 282 290 1598 1757 1754 1957
154 198 317 457 448 714 145 284 204 511 204 785 1 121 -3 158 -22 223 -53
187 -159 325 -297 392 -94 45 -214 64 -315 48z m150 -143 c131 -25 218 -95
281 -225 53 -111 73 -221 65 -353 -13 -213 -67 -404 -181 -637 -138 -283 -334
-584 -536 -827 -142 -170 -1613 -1802 -1688 -1872 -30 -29 -31 -29 -46 -10
-25 31 -88 139 -180 310 -457 838 -666 1493 -641 2013 15 317 75 563 193 793
149 289 396 481 616 480 185 -1 311 -111 386 -337 45 -136 56 -232 41 -372
-16 -159 -56 -453 -80 -590 -24 -135 -25 -155 -5 -193 19 -37 57 -48 90 -26
16 11 75 119 184 338 178 359 262 510 388 703 129 195 225 317 353 445 131
131 252 219 405 291 148 71 245 90 355 69z"/>
</g>
</svg>
