<?xml version="1.0" standalone="no"?>
<!DOCTYPE svg PUBLIC "-//W3C//DTD SVG 20010904//EN"
 "http://www.w3.org/TR/2001/REC-SVG-20010904/DTD/svg10.dtd">
<svg version="1.0" xmlns="http://www.w3.org/2000/svg"
 width="512.000000pt" height="512.000000pt" viewBox="0 0 512.000000 512.000000"
 preserveAspectRatio="xMidYMid meet">
<g transform="translate(0.000000,512.000000) scale(0.100000,-0.100000)"
fill="#000000" stroke="none">
<path d="M1170 4459 c-237 -20 -387 -76 -543 -204 -50 -40 -134 -133 -155
-171 -6 -11 -28 -6 -116 21 -185 59 -207 51 -218 -81 -8 -99 6 -471 22 -585 6
-41 17 -112 26 -158 15 -80 14 -85 -3 -95 -44 -24 -125 -113 -150 -165 -38
-80 -45 -220 -13 -304 42 -112 133 -197 251 -233 l55 -17 22 -69 c27 -88 82
-197 137 -273 49 -69 161 -182 220 -222 l40 -27 -128 -12 c-115 -10 -136 -15
-202 -48 -122 -60 -206 -158 -245 -285 -18 -58 -20 -94 -20 -446 0 -466 -12
-430 140 -430 95 0 103 2 121 24 45 55 8 131 -65 131 l-37 0 3 332 c3 325 4
334 26 380 27 55 91 122 142 148 52 26 139 40 256 40 l101 0 6 -34 c10 -60 60
-148 119 -208 175 -180 469 -179 641 1 58 61 97 128 117 200 l12 44 137 -5
c120 -5 145 -8 193 -30 75 -35 132 -88 165 -156 l28 -57 3 -327 3 -328 -800 0
-800 0 -20 -26 c-34 -43 -21 -102 26 -123 34 -16 1672 -16 1706 0 14 6 30 22
36 36 7 16 11 138 11 372 0 307 -6 409 -25 472 -5 14 9 17 102 22 60 3 129 12
154 20 l47 14 -25 -53 c-38 -84 -44 -156 -41 -512 l3 -334 28 -24 28 -24 994
0 c707 0 1001 3 1018 11 45 20 47 40 47 402 0 353 -7 423 -45 497 -9 17 -14
30 -13 30 2 0 35 -7 73 -15 39 -8 122 -15 186 -15 103 0 119 2 143 21 l26 20
0 299 c0 274 -2 303 -21 366 -37 123 -118 233 -218 299 -39 26 -59 45 -55 54
2 8 10 44 16 80 14 82 0 154 -42 228 l-30 52 -3 223 c-3 206 -5 229 -29 307
-14 47 -34 91 -44 98 -30 22 -82 16 -111 -13 -28 -28 -28 -41 3 -144 11 -35
18 -107 21 -202 l5 -148 -218 0 c-121 0 -248 5 -283 10 -180 26 -322 171 -338
346 -8 83 -30 114 -82 114 -45 0 -81 -33 -81 -73 0 -139 -94 -289 -220 -350
-79 -38 -156 -47 -409 -47 l-224 0 6 133 c7 146 28 246 75 350 117 257 361
442 642 487 111 17 127 15 134 -20 4 -23 15 -35 41 -46 46 -19 83 -3 105 43
17 37 33 40 140 22 168 -26 325 -106 452 -227 68 -66 84 -76 115 -76 42 0 83
40 83 80 0 30 -84 122 -173 191 -168 130 -444 219 -616 199 -31 -4 -67 -6 -81
-6 -216 12 -346 -12 -515 -95 -268 -131 -455 -360 -531 -650 -24 -89 -27 -122
-30 -308 -3 -173 -6 -213 -20 -237 l-17 -28 -22 63 c-22 66 -64 135 -101 164
-20 16 -22 26 -27 236 -4 193 -8 232 -30 317 -49 187 -136 338 -271 474 -243
242 -523 329 -946 293z m425 -178 c256 -63 477 -246 586 -486 53 -118 70 -205
76 -390 l6 -170 -554 2 c-354 2 -576 6 -614 14 -184 34 -333 176 -389 371 -18
62 -35 78 -85 78 -39 0 -77 -33 -138 -122 -57 -83 -98 -161 -123 -232 l-16
-49 -12 79 c-23 150 -32 269 -32 422 0 83 4 152 8 152 5 0 42 -11 82 -25 115
-39 153 -36 183 14 98 166 261 290 443 336 151 38 436 41 579 6z m-849 -1030
c64 -59 151 -109 244 -143 65 -23 69 -23 660 -28 l595 -5 46 -27 c78 -46 128
-145 113 -226 -20 -110 -94 -178 -211 -192 -78 -10 -97 -26 -108 -93 -13 -77
-66 -207 -117 -284 -163 -250 -426 -384 -727 -371 -185 8 -347 72 -493 195
-123 104 -227 273 -263 433 -22 95 -38 112 -114 121 -76 9 -142 47 -178 101
-38 56 -44 157 -15 214 42 81 126 134 212 134 48 0 74 29 90 100 17 73 55 175
86 228 l25 42 50 -74 c27 -41 74 -97 105 -125z m2965 -77 c23 -43 133 -138
196 -169 102 -50 141 -56 409 -63 l251 -7 37 -29 c94 -71 109 -180 38 -275
-28 -38 -92 -70 -139 -71 -40 0 -80 -18 -88 -39 -4 -9 -15 -48 -25 -87 -45
-176 -158 -331 -310 -429 -127 -81 -240 -115 -391 -115 -335 0 -628 229 -703
551 -22 90 -48 119 -107 119 -97 0 -189 94 -189 192 1 76 76 172 142 182 18 3
134 7 258 10 238 4 282 12 381 61 65 33 143 98 181 150 18 24 36 44 39 45 3 0
12 -12 20 -26z m-1157 -554 c4 -11 -5 -21 -31 -35 -57 -30 -164 -143 -200
-210 -58 -112 -65 -150 -72 -392 l-6 -223 -45 30 c-62 42 -157 68 -277 77
l-102 8 77 61 c139 109 258 281 310 446 l27 87 44 11 c95 24 181 87 229 169
l26 45 7 -29 c4 -17 9 -37 13 -45z m149 -174 c23 -13 60 -29 83 -35 38 -10 41
-14 58 -68 10 -32 27 -75 37 -95 29 -56 26 -185 -5 -261 -34 -82 -72 -133
-133 -179 -73 -56 -142 -79 -246 -86 l-89 -5 4 234 c5 264 12 297 86 394 34
45 133 125 154 125 5 0 28 -11 51 -24z m2068 -1 c102 -65 174 -179 190 -303 4
-37 8 -147 9 -246 l0 -179 -87 5 c-144 9 -249 62 -327 164 -53 69 -78 145 -79
239 -1 71 3 91 37 177 l39 96 56 21 c31 11 65 27 76 35 28 21 39 20 86 -9z
m-1616 -542 c22 -16 60 -42 85 -56 l45 -27 -135 0 c-74 0 -145 -3 -157 -6 -21
-6 -20 -3 12 62 19 38 35 76 35 85 0 29 14 30 44 1 17 -16 49 -42 71 -59z
m1221 -31 c30 -60 30 -63 10 -58 -11 3 -82 6 -156 6 l-135 0 60 39 c33 21 85
59 115 84 l55 47 10 -28 c5 -15 24 -56 41 -90z m-3306 -134 c67 -19 358 -17
438 4 61 15 62 15 62 -6 0 -36 -46 -119 -86 -158 -154 -147 -399 -91 -474 109
-25 66 -25 76 -2 69 9 -3 37 -11 62 -18z m2460 2 c67 -14 255 -12 335 5 38 8
71 15 72 15 8 0 1 -143 -8 -167 -30 -82 -102 -145 -189 -165 -105 -24 -224 33
-274 133 -21 43 -26 67 -26 126 0 71 1 73 23 68 12 -3 42 -9 67 -15z m-247
-131 c26 -217 251 -380 473 -342 178 31 321 175 341 343 l6 52 136 -4 c118 -3
142 -7 179 -26 58 -31 113 -87 142 -147 25 -49 25 -54 28 -362 l3 -313 -901 0
-902 0 4 308 3 307 26 55 c39 82 111 147 189 171 14 4 79 8 146 8 l121 1 6
-51z"/>
<path d="M789 2931 c-22 -18 -24 -28 -27 -126 -3 -67 1 -117 8 -135 22 -54
113 -61 139 -11 6 11 11 70 11 131 0 104 -1 112 -25 135 -29 30 -74 32 -106 6z"/>
<path d="M1665 2925 c-23 -22 -25 -31 -25 -129 0 -121 10 -151 56 -166 37 -12
86 6 98 35 3 9 6 66 6 126 0 103 -1 111 -25 134 -15 16 -36 25 -55 25 -19 0
-40 -9 -55 -25z"/>
<path d="M1030 2473 c-18 -23 -21 -37 -17 -80 17 -169 183 -278 348 -230 104
31 177 119 186 227 5 54 3 63 -17 85 -46 49 -124 24 -136 -43 -13 -73 -57
-122 -109 -122 -54 0 -115 60 -115 113 0 72 -96 106 -140 50z"/>
<path d="M3175 2825 c-16 -15 -25 -36 -25 -55 0 -30 37 -80 60 -80 6 0 10 -23
10 -55 0 -42 5 -60 20 -75 26 -26 80 -26 111 -1 23 18 24 26 24 131 0 110 0
112 -28 136 -23 20 -39 24 -88 24 -50 0 -64 -4 -84 -25z"/>
<path d="M4029 2831 c-22 -18 -24 -28 -27 -128 -3 -98 -2 -111 18 -136 17 -21
30 -27 60 -27 56 0 80 29 80 94 0 46 3 53 29 67 54 31 46 127 -11 143 -49 13
-125 6 -149 -13z"/>
<path d="M3483 2440 c-54 -22 -57 -125 -7 -207 43 -69 108 -106 194 -111 84
-5 131 10 182 56 69 62 107 173 78 227 -39 72 -150 44 -150 -39 0 -13 -12 -38
-26 -55 -20 -25 -34 -31 -64 -31 -46 0 -90 39 -90 81 0 55 -66 100 -117 79z"/>
</g>
</svg>
