<?xml version="1.0" standalone="no"?>
<!DOCTYPE svg PUBLIC "-//W3C//DTD SVG 20010904//EN"
 "http://www.w3.org/TR/2001/REC-SVG-20010904/DTD/svg10.dtd">
<svg version="1.0" xmlns="http://www.w3.org/2000/svg"
 width="512.000000pt" height="512.000000pt" viewBox="0 0 512.000000 512.000000"
 preserveAspectRatio="xMidYMid meet">
<g transform="translate(0.000000,512.000000) scale(0.100000,-0.100000)"
fill="#000000" stroke="none">
<path d="M3430 5019 c-438 -42 -1025 -233 -1127 -367 -28 -37 -33 -52 -33 -96
0 -43 6 -61 30 -95 26 -35 73 -73 102 -83 5 -2 1 -37 -7 -78 -22 -110 -30
-355 -16 -480 19 -167 31 -190 104 -190 41 0 61 20 77 78 22 84 137 129 310
120 54 -3 104 -1 117 5 27 12 47 59 39 92 -11 44 -48 58 -164 63 -117 4 -226
-13 -294 -47 l-38 -18 0 86 c0 91 15 232 30 291 9 35 10 35 61 31 121 -8 396
37 528 88 l51 19 0 -132 c0 -168 6 -180 126 -261 49 -33 119 -89 157 -124 75
-71 162 -193 172 -243 11 -50 42 -78 86 -78 43 0 79 35 79 77 0 50 49 103 96
103 28 0 70 -28 82 -55 27 -58 8 -186 -38 -258 -34 -54 -70 -75 -148 -87 -66
-11 -92 -35 -92 -84 0 -22 8 -40 25 -56 22 -20 31 -22 94 -18 55 4 83 13 134
41 l65 35 43 -44 c24 -25 77 -68 117 -95 75 -52 236 -139 258 -139 11 0 16
-24 30 -156 l6 -60 -228 -83 c-659 -238 -1214 -402 -1362 -401 -62 1 -116 32
-140 81 -30 62 -77 242 -64 247 6 2 42 25 81 53 134 94 193 211 132 260 -46
38 -96 21 -144 -49 -15 -21 -47 -53 -72 -71 l-44 -31 -11 55 c-11 51 -10 57
13 87 82 111 51 261 -67 317 l-44 22 20 46 c11 26 23 74 25 107 7 80 -14 111
-76 111 -53 0 -68 -17 -82 -90 -17 -94 -29 -110 -79 -106 -71 5 -113 -58 -80
-119 16 -29 86 -66 173 -91 109 -31 124 -68 52 -124 -42 -31 -43 -49 -16 -180
l18 -90 -26 -6 c-14 -4 -53 -7 -86 -8 -96 -2 -139 -47 -111 -116 18 -43 43
-50 154 -42 l85 6 -6 -92 c-6 -101 -26 -169 -59 -204 -47 -50 -270 -97 -514
-110 -149 -7 -174 -19 -174 -83 0 -58 33 -80 120 -80 l66 0 12 -76 c7 -41 26
-108 43 -149 30 -73 97 -179 128 -202 24 -19 65 -15 95 8 41 32 36 78 -19 158
-49 72 -83 158 -92 230 l-5 47 85 12 c79 11 90 11 138 -7 97 -37 153 -90 235
-223 33 -54 31 -53 125 -73 127 -26 218 -95 274 -205 l26 -52 -19 -47 c-20
-46 -36 -110 -48 -189 -6 -42 -7 -43 -27 -27 -12 8 -92 62 -177 119 -85 58
-188 127 -228 155 -81 56 -106 61 -146 30 -20 -16 -26 -29 -26 -59 0 -46 30
-74 171 -167 49 -32 89 -61 89 -64 0 -3 -26 -23 -57 -45 -31 -21 -104 -85
-161 -142 l-104 -103 -112 108 c-184 179 -313 258 -440 270 -78 7 -110 -5
-125 -49 -21 -60 17 -101 104 -112 113 -14 228 -100 480 -358 94 -95 277 -294
409 -440 255 -285 270 -297 322 -263 16 10 40 48 61 93 515 1133 1062 1838
1618 2083 97 43 96 43 133 -6 18 -25 35 -51 37 -57 3 -9 -25 -25 -78 -46 -244
-95 -501 -302 -712 -574 -97 -125 -378 -541 -389 -576 -18 -57 45 -116 102
-96 20 7 68 70 182 239 186 277 264 378 390 509 176 182 358 304 566 379 l71
26 37 -38 c20 -20 41 -53 46 -72 6 -21 10 -373 10 -936 l0 -902 26 -20 c34
-27 64 -27 98 0 l26 20 0 945 0 945 -21 42 c-12 23 -57 79 -100 125 -190 201
-276 359 -330 612 -33 151 -37 453 -9 750 31 349 37 606 16 702 -20 92 -87
232 -146 308 -56 72 -67 80 -111 80 -29 0 -42 -6 -58 -26 -31 -40 -26 -64 30
-140 60 -81 112 -187 129 -264 17 -73 8 -345 -25 -700 -14 -151 -25 -285 -25
-298 l0 -22 -52 26 c-79 40 -187 117 -240 171 l-46 48 18 70 c11 39 19 104 19
146 1 125 -38 204 -127 256 -41 24 -57 28 -127 28 -78 0 -97 -6 -158 -48 -16
-10 -21 -8 -39 18 -42 60 -205 211 -280 260 l-77 50 -1 186 c0 175 -1 188 -21
214 -19 23 -27 26 -63 22 -23 -2 -77 -20 -121 -40 -171 -77 -435 -122 -582
-99 -75 12 -136 37 -136 57 0 19 209 115 358 164 299 98 681 163 860 146 163
-15 321 -65 448 -140 96 -57 167 -40 167 40 0 50 -27 74 -161 139 -215 105
-422 140 -679 115z m1136 -2468 l31 -89 -40 -12 c-53 -16 -209 -97 -288 -150
-157 -106 -326 -255 -471 -417 l-102 -115 -63 273 c-34 150 -61 274 -60 274 1
1 101 33 222 73 121 40 330 112 465 161 135 49 252 89 260 90 10 1 25 -28 46
-88z m-1823 -355 c106 -51 225 -44 509 28 l166 43 7 -36 c3 -20 9 -45 11 -57
4 -15 -2 -23 -20 -32 -39 -17 -114 -91 -141 -136 -34 -59 -50 -158 -37 -231 5
-33 9 -60 8 -61 0 0 -32 -19 -70 -42 -38 -24 -69 -42 -71 -40 -1 2 -15 23 -32
48 -69 102 -183 181 -309 214 -32 8 -65 23 -72 33 -77 107 -117 156 -146 178
l-34 26 42 39 c24 22 51 58 61 80 l18 41 29 -35 c16 -19 52 -46 81 -60z m782
-403 l43 -188 -78 -110 c-96 -135 -222 -334 -303 -479 l-61 -109 -20 44 c-14
32 -21 72 -24 147 -10 254 59 382 253 473 102 48 116 71 86 148 -30 75 -35
131 -16 177 16 38 64 98 73 90 2 -2 23 -89 47 -193z m-714 -711 c124 -103 161
-177 167 -335 l5 -108 -74 -159 c-56 -119 -77 -156 -85 -147 -43 46 -386 427
-412 458 l-34 39 46 53 c94 110 269 244 321 246 6 0 35 -21 66 -47z"/>
<path d="M1290 4268 c-211 -44 -447 -139 -607 -244 -303 -197 -514 -459 -595
-740 -20 -68 -23 -102 -23 -239 0 -121 4 -175 17 -223 l18 -62 -35 -46 c-52
-68 -68 -135 -63 -268 3 -97 7 -118 31 -163 35 -67 81 -119 136 -155 41 -26
48 -36 78 -120 95 -265 209 -420 373 -502 104 -51 195 -69 345 -65 69 2 125 2
125 -1 0 -3 -9 -66 -20 -140 -25 -166 -27 -399 -5 -526 32 -184 107 -381 215
-559 61 -101 92 -129 134 -121 86 18 87 72 4 209 -148 245 -208 452 -208 717
0 148 12 239 65 513 42 218 65 384 65 478 l0 69 38 0 c85 0 199 86 221 167 26
92 1 143 -69 143 -30 0 -43 -6 -59 -26 -12 -15 -21 -35 -21 -46 0 -11 -13 -33
-29 -49 -54 -54 -145 -33 -226 51 -26 28 -36 44 -27 47 53 20 212 141 298 227
170 171 235 311 240 519 l3 118 51 70 c105 140 153 234 229 443 6 15 19 -2 59
-81 l52 -101 -93 -119 c-136 -173 -157 -206 -157 -247 0 -44 29 -76 69 -76 47
0 58 8 116 89 30 42 93 126 140 186 46 61 87 124 91 140 10 57 -109 297 -201
402 -27 31 -46 65 -54 97 -32 130 -107 204 -249 247 -37 11 -47 10 -77 -4 -26
-12 -35 -24 -41 -52 -9 -50 14 -79 77 -100 105 -35 146 -100 135 -209 -23
-222 -145 -446 -360 -662 -180 -179 -367 -305 -628 -420 -132 -59 -158 -79
-158 -126 0 -34 39 -78 69 -78 55 0 360 147 516 248 50 32 127 88 172 125 l82
66 -6 -32 c-42 -220 -245 -430 -564 -581 -106 -51 -341 -136 -373 -136 -22 0
-56 -49 -56 -82 0 -34 39 -78 69 -78 28 0 232 63 314 97 l69 28 86 -85 87 -85
-1 -140 c-1 -99 -8 -171 -22 -244 -12 -57 -23 -105 -25 -107 -13 -13 -138 -25
-222 -22 -261 12 -397 143 -519 501 l-41 121 -60 30 c-89 46 -119 94 -124 198
-6 142 11 167 259 374 185 154 306 275 367 367 56 84 61 128 19 163 -52 46
-87 31 -150 -64 -47 -72 -218 -243 -348 -349 l-75 -62 -7 37 c-3 20 -6 80 -6
133 0 226 97 427 304 634 157 157 308 257 502 334 100 39 288 93 373 106 57 9
81 34 81 84 0 31 -6 44 -26 60 -32 25 -42 25 -164 -1z"/>
<path d="M2872 3641 c-21 -21 -63 -51 -93 -66 -76 -39 -89 -52 -89 -96 0 -43
35 -79 78 -79 34 0 142 55 192 97 70 60 86 110 49 157 -16 20 -29 26 -59 26
-32 0 -46 -7 -78 -39z"/>
<path d="M2125 3119 c-29 -27 -77 -62 -106 -77 -62 -32 -79 -63 -60 -110 17
-41 60 -58 109 -44 91 27 222 147 222 202 0 41 -39 80 -80 80 -24 0 -44 -12
-85 -51z"/>
<path d="M3382 718 c-20 -22 -180 -335 -236 -462 -14 -32 -26 -70 -26 -85 0
-57 56 -94 109 -71 38 16 296 543 286 583 -15 57 -93 77 -133 35z"/>
</g>
</svg>
