<?xml version="1.0" standalone="no"?>
<!DOCTYPE svg PUBLIC "-//W3C//DTD SVG 20010904//EN"
 "http://www.w3.org/TR/2001/REC-SVG-20010904/DTD/svg10.dtd">
<svg version="1.0" xmlns="http://www.w3.org/2000/svg"
 width="512.000000pt" height="512.000000pt" viewBox="0 0 512.000000 512.000000"
 preserveAspectRatio="xMidYMid meet">

<g transform="translate(0.000000,512.000000) scale(0.100000,-0.100000)"
fill="#000000" stroke="none">
<path d="M1795 4665 c-538 -99 -1051 -569 -1320 -1210 -311 -740 -219 -1639
210 -2069 94 -93 188 -156 324 -217 190 -84 284 -108 466 -116 204 -10 398 22
579 94 l88 35 31 -39 c61 -76 214 -226 302 -298 235 -190 471 -310 735 -372
146 -34 394 -43 541 -18 202 34 407 108 546 197 288 187 511 594 530 968 10
190 -31 459 -102 675 -185 559 -684 1136 -1207 1395 -68 33 -169 77 -226 98
l-103 37 -25 60 c-14 33 -29 74 -34 90 -42 158 -216 381 -394 504 -98 67 -262
146 -361 173 -67 18 -113 22 -290 24 -152 2 -232 -1 -290 -11z m547 -114 c79
-21 196 -71 258 -110 35 -23 35 -23 6 -16 -430 96 -884 -165 -1246 -717 -214
-326 -358 -696 -416 -1070 -25 -157 -25 -463 0 -612 63 -384 225 -685 457
-848 24 -17 24 -18 -21 -12 -218 29 -418 131 -572 292 -174 182 -273 373 -330
635 -19 88 -22 132 -22 317 0 606 170 1121 509 1545 243 303 497 491 770 569
207 59 443 70 607 27z m282 -241 c160 -50 308 -185 398 -365 114 -226 165
-518 147 -845 -23 -404 -201 -907 -440 -1244 l-63 -88 -29 33 c-16 19 -67 91
-113 161 l-85 126 40 74 c243 447 348 1082 255 1548 -36 182 -137 417 -234
545 -72 95 -72 89 -1 81 35 -4 91 -16 125 -26z m-347 -12 c64 -70 241 -390
231 -418 -2 -6 -49 -26 -105 -45 -125 -42 -193 -76 -310 -154 -112 -75 -201
-168 -293 -308 -174 -264 -234 -462 -234 -768 0 -285 60 -525 210 -844 30 -63
53 -115 52 -116 -2 -2 -39 -29 -83 -60 -154 -111 -290 -157 -417 -141 -64 8
-74 20 -142 154 -108 215 -156 438 -156 732 0 246 35 454 115 695 208 623 617
1125 1040 1276 65 23 68 23 92 -3z m307 -645 c8 -38 18 -86 21 -108 4 -22 9
-47 11 -56 4 -14 -13 -16 -133 -17 -76 0 -160 -5 -188 -10 -27 -6 -51 -9 -53
-7 -7 6 98 127 143 164 49 41 151 100 172 101 6 0 18 -30 27 -67z m846 -35
c109 -50 270 -149 369 -225 106 -83 343 -319 435 -433 236 -295 381 -594 453
-935 24 -115 27 -152 27 -325 1 -157 -2 -208 -17 -260 -28 -102 -72 -185 -129
-246 -46 -49 -127 -114 -141 -114 -3 0 5 28 16 63 19 55 22 83 21 247 0 161
-4 202 -27 312 -72 342 -217 646 -443 928 -154 192 -397 411 -612 551 l-99 64
-7 110 c-4 61 -14 146 -22 190 -7 44 -17 97 -20 118 l-7 37 64 -24 c35 -13 98
-40 139 -58z m-1205 -10 c-67 -75 -136 -208 -166 -323 -18 -65 -22 -110 -22
-240 -1 -169 8 -248 50 -409 76 -293 254 -633 479 -916 102 -127 326 -347 440
-432 267 -198 540 -320 821 -368 219 -38 459 -20 599 44 32 15 59 25 60 23 9
-8 -121 -149 -179 -196 -276 -219 -694 -282 -1072 -160 -356 116 -821 464
-1085 815 -276 366 -450 838 -450 1223 0 342 175 724 411 897 46 33 159 104
167 104 2 0 -22 -28 -53 -62z m405 -367 c0 -185 -48 -422 -122 -609 -43 -108
-158 -324 -175 -329 -11 -4 -60 101 -99 207 -65 182 -94 343 -94 520 0 108 19
252 34 268 11 11 131 19 289 21 l167 1 0 -79z m728 -225 c97 -60 167 -118 290
-239 327 -321 555 -726 644 -1142 18 -84 23 -141 23 -245 0 -161 -15 -219 -78
-312 -40 -58 -47 -64 -91 -72 -64 -13 -262 7 -392 39 -350 85 -653 263 -936
551 l-87 89 50 65 c113 148 236 373 314 575 78 202 156 506 171 668 4 37 10
67 13 67 4 0 39 -20 79 -44z m-1361 -1636 l73 -110 -39 -20 c-68 -34 -188 -62
-275 -63 -93 -1 -170 15 -241 51 l-50 25 70 18 c87 22 229 94 315 158 36 27
67 50 70 50 3 0 38 -49 77 -109z"/>
</g>
</svg>
